<svg width="100" height="100" viewBox="0 0 100 100" fill="none" xmlns="http://www.w3.org/2000/svg">
<g clip-path="url(#clip0_2_11)">
<circle cx="47.5" cy="50.5" r="31.5" fill="white"/>
<path d="M58.552 49.1292C60.7003 46.9834 60.7003 43.5026 58.5526 41.3572C56.4075 39.2123 52.9275 39.2106 50.7817 41.3572C48.6362 43.5021 48.6362 46.9843 50.7817 49.1273C52.9275 51.2731 56.4069 51.2731 58.552 49.1292ZM90.7012 45.5643C84.8777 44.3855 81.6845 36.0726 87.8161 31.9882C88.5869 31.4731 89.1016 30.1871 87.8154 27.486C85.2185 22.0294 81.9779 28.9138 76.4986 24.5275C72.6384 21.4416 73.1546 18.2258 73.9893 15.2031C74.8314 12.1697 69.8168 8.88313 66.597 12.5673C63.5728 15.9761 58.4285 14.7993 58.4285 14.7993L58.3456 14.7685C53.1743 13.5933 52.953 9.10062 52.8862 8.21472C52.8176 7.2897 51.9489 6.20906 48.9666 6.00242C42.9389 5.59146 47.1646 11.8602 40.8278 14.4111C36.2487 16.2567 33.7002 14.2306 31.4779 12.0175C29.1291 9.67719 23.2601 13.3428 25.5486 17.1645C27.3709 21.3391 23.4683 25.3438 23.4683 25.3438L23.4143 25.4329C19.8866 28.8849 16.0894 26.913 15.3125 26.5365C14.4764 26.1339 13.1079 26.339 11.4309 28.8194C8.04378 33.8331 15.6289 33.1237 14.621 40.0742C13.9211 44.9627 10.8871 46.1498 7.85861 46.9622C4.82801 47.7754 5.87888 51.3362 5.87888 51.3362C5.87888 51.3362 5.3072 53.9095 9.33617 54.6725C13.8063 55.5503 15.3642 60.6259 15.3642 60.6259L15.418 60.6684C16.6334 65.4532 13.0207 67.7478 12.306 68.2329C11.5372 68.7519 11.031 70.0411 12.3313 72.7341C14.9679 78.1753 18.1646 71.2691 23.6687 75.6229C27.5483 78.683 27.0518 81.9024 26.2342 84.9294C25.4195 87.9564 29.0245 88.8372 29.0245 88.8372C29.0245 88.8372 30.9647 90.6235 33.6471 87.5197C36.6458 84.0935 41.8035 85.2336 41.8035 85.2336L41.8828 85.2664C46.6309 86.6134 46.8053 90.8913 46.865 91.7543C46.9286 92.6818 47.7888 93.7644 50.7719 93.9893C56.7993 94.4436 52.4315 88.2132 58.9574 85.632C63.5509 83.8169 66.0887 85.8576 68.2973 88.0854C70.506 90.3105 73.0738 87.6315 73.0738 87.6315C73.0738 87.6315 75.5967 86.8496 74.2559 82.9752C72.7987 78.659 76.4099 74.7719 76.4099 74.7719L76.4418 74.7172C79.9928 71.2876 83.775 73.283 84.5493 73.6651C85.3833 74.0756 86.7554 73.8764 88.4451 71.4066C91.8657 66.4125 84.2778 67.0749 85.3238 60.1323C86.0589 55.2467 89.0982 54.0753 92.1337 53.284C95.206 52.4789 95.5043 46.1328 90.7012 45.5643ZM30.3157 73.4057C29.7803 73.5551 25.9514 74.0898 25.9514 74.0898C25.9514 74.0898 26.5025 70.0156 26.6826 69.3984C29.7057 59.0425 35.3366 62.2325 35.3366 62.2325L37.7715 64.6668C37.7715 64.6668 41.0213 70.4012 30.3157 73.4057ZM59.6424 54.7673C57.7847 56.6265 55.7935 58.2527 53.723 59.6452C52.6007 65.2859 49.9826 70.4935 45.8056 74.667C45.5673 74.9066 45.3156 75.1265 45.0703 75.3556C45.0554 71.9213 44.5177 68.2427 43.5096 64.4308C42.3594 64.7597 41.2092 65.0065 40.0621 65.2079C39.4683 64.208 38.6978 63.1984 37.7511 62.254C36.8059 61.3086 35.796 60.5358 34.8 59.9458C35.002 58.7972 35.2467 57.647 35.5771 56.4983C31.763 55.4878 28.0851 54.9504 24.6488 54.934C24.8778 54.6887 25.0998 54.4384 25.3372 54.1976C29.5116 50.0236 34.722 47.4055 40.3618 46.2842C41.7546 44.2126 43.3805 42.2227 45.2397 40.3635C52.5858 33.0153 61.9434 29.2895 70.5743 29.4321C70.7176 38.0632 66.9899 47.4205 59.6424 54.7673Z" fill="url(#paint0_linear_2_11)"/>
<path d="M74.2559 82.9754C72.2674 77.0849 78.1598 70.5113 84.5493 73.6652C84.9147 73.8445 85.3824 73.9078 85.9358 73.7141C74.5352 66.8417 70.1771 51.1138 68.5299 41.0247C66.7296 45.9158 63.7537 50.6565 59.6424 54.7675C57.7847 56.6267 55.7935 58.2527 53.723 59.6454C52.6007 65.2861 49.9826 70.4935 45.8056 74.6672C45.5673 74.9068 45.3156 75.1267 45.0703 75.3556C45.0554 71.9215 44.5177 68.2429 43.5096 64.4308C42.3594 64.7599 41.2092 65.0067 40.0621 65.2081C39.4683 64.2082 38.6978 63.1986 37.7511 62.2542C36.8059 61.3088 35.796 60.536 34.8 59.946C35.002 58.7973 35.2467 57.6472 35.5771 56.4985C31.763 55.488 28.0851 54.9506 24.6488 54.9342C24.8778 54.6889 25.0998 54.4386 25.3372 54.1976C29.5116 50.0238 34.722 47.4054 40.3618 46.2844C41.7546 44.2128 43.3805 42.2229 45.2397 40.3637C49.3303 36.2725 54.0449 33.3074 58.9107 31.5041C48.5554 29.7995 32.36 25.2558 25.8145 13.2337C25.2203 13.9394 24.6899 15.1916 25.5486 17.1647C27.371 21.3393 23.4683 25.344 23.4683 25.344L23.4143 25.4329C19.8866 28.8851 16.0894 26.9132 15.3125 26.5367C14.4764 26.134 13.1079 26.3392 11.4309 28.8196C8.04378 33.8331 15.6289 33.1239 14.621 40.0744C13.9211 44.9629 10.8871 46.15 7.85861 46.9624C4.68705 47.5832 4.64007 54.1072 9.33617 54.6727C13.8063 55.5505 15.3642 60.6261 15.3642 60.6261L15.418 60.6686C16.6334 65.4534 13.0207 67.748 12.306 68.2331C11.5372 68.7521 11.031 70.0413 12.3313 72.7341C14.9679 78.1755 18.1646 71.269 23.6688 75.6231C27.5483 78.6832 27.0518 81.9024 26.2342 84.9296C25.4195 87.9566 29.0245 88.8372 29.0245 88.8372C29.0245 88.8372 30.9647 90.6236 33.6471 87.5197C36.6458 84.0937 41.8035 85.2338 41.8035 85.2338L41.8828 85.2664C46.6309 86.6136 46.8053 90.8915 46.865 91.7545C46.9286 92.682 47.7888 93.7646 50.7719 93.9893C56.7993 94.4438 52.4315 88.2134 58.9574 85.6322C63.5509 83.8171 66.2936 86.0432 68.5025 88.271C70.1958 89.9773 72.9639 88.3469 74.0936 86.8596C74.5971 86.1967 74.9613 85.0142 74.2559 82.9754ZM30.3157 73.4057C29.7803 73.5553 25.9514 74.0898 25.9514 74.0898C25.9514 74.0898 26.5025 70.0156 26.6826 69.3986C29.7057 59.0427 35.3366 62.2327 35.3366 62.2327L37.7715 64.667C37.7715 64.667 41.0213 70.4014 30.3157 73.4057Z" fill="url(#paint1_linear_2_11)"/>
<path d="M26.2342 84.9296C25.2892 87.626 29.035 89.5519 30.8282 89.3287C31.5921 89.2339 32.5586 88.7794 33.6471 87.5197C36.6458 84.0937 41.8035 85.2338 41.8035 85.2338L41.8828 85.2664C46.6309 86.6136 46.8053 90.8915 46.865 91.7545C46.9286 92.682 47.7888 93.7646 50.7719 93.9893C54.6901 94.2848 54.1599 92.0842 54.8256 89.9967C54.6236 75.6522 58.2078 61.1359 60.2247 54.1536C60.0287 54.3572 59.8431 54.5671 59.6424 54.7675C57.7847 56.6267 55.7935 58.2527 53.723 59.6454C52.6007 65.2861 49.9826 70.4935 45.8056 74.6672C45.5673 74.9068 45.3156 75.1267 45.0703 75.3556C45.0554 71.9215 44.5177 68.2429 43.5096 64.4308C42.3594 64.7599 41.2092 65.0067 40.0621 65.2081C39.4683 64.2082 38.6978 63.1986 37.7511 62.2542C36.8059 61.3088 35.796 60.536 34.8 59.946C35.002 58.7974 35.2467 57.6472 35.5771 56.4985C31.763 55.488 28.0851 54.9506 24.6488 54.9342C24.8778 54.6889 25.0998 54.4387 25.3372 54.1976C29.5116 50.0238 34.722 47.4054 40.3618 46.2844C41.7546 44.2128 43.3805 42.2229 45.2397 40.3637C45.2992 40.3038 45.3624 40.25 45.4219 40.1903C38.4588 42.1655 25.084 45.3711 11.6316 45.4081C10.5021 46.1817 9.18033 46.6086 7.85861 46.9624C4.82801 47.7756 5.87888 51.3364 5.87888 51.3364C5.87888 51.3364 5.3072 53.9097 9.33617 54.6727C13.8063 55.5505 15.3642 60.6261 15.3642 60.6261L15.418 60.6687C16.6334 65.4534 13.0207 67.748 12.306 68.2331C11.5372 68.7521 11.031 70.0413 12.3313 72.7341C14.9679 78.1756 18.1646 71.2691 23.6687 75.6231C27.5483 78.6832 27.0518 81.9024 26.2342 84.9296ZM26.6826 69.3986C29.7057 59.0427 35.3366 62.2327 35.3366 62.2327L37.7715 64.667C37.7715 64.667 41.0213 70.4014 30.3157 73.4057C29.7803 73.5554 25.9514 74.0898 25.9514 74.0898C25.9514 74.0898 26.5025 70.0156 26.6826 69.3986Z" fill="url(#paint2_linear_2_11)"/>
</g>
<defs>
<linearGradient id="paint0_linear_2_11" x1="21.7722" y1="74.5103" x2="78.3161" y2="25.4854" gradientUnits="userSpaceOnUse">
<stop stop-color="#6EDC8C"/>
<stop offset="0.168627" stop-color="#6EDC8C"/>
<stop offset="0.65098" stop-color="#2DB4F9"/>
<stop offset="1" stop-color="#0580FB"/>
</linearGradient>
<linearGradient id="paint1_linear_2_11" x1="69.7247" y1="29.086" x2="18.1344" y2="81.9513" gradientUnits="userSpaceOnUse">
<stop stop-color="#2DB4F9"/>
<stop offset="1" stop-color="#7CE5FC"/>
</linearGradient>
<linearGradient id="paint2_linear_2_11" x1="46.4976" y1="53.8793" x2="16.5529" y2="83.1378" gradientUnits="userSpaceOnUse">
<stop stop-color="#3BB585"/>
<stop offset="1" stop-color="#6EDC8C"/>
</linearGradient>
<clipPath id="clip0_2_11">
<rect width="90" height="90" fill="white" transform="translate(5 5)"/>
</clipPath>
</defs>
</svg>
